<svg width="297" height="667" viewBox="0 0 297 667" fill="none" xmlns="http://www.w3.org/2000/svg">
<g opacity="0.05">
<path fill-rule="evenodd" clip-rule="evenodd" d="M217.651 346.765C211.885 352.925 217.643 365.164 196.683 376.422C152.832 399.86 145.262 441.678 108.282 456.338C107.848 456.441 158.804 450.839 189.47 415.264C202.26 400.335 210.183 379.426 213.855 367.656C215.095 363.476 218.666 345.534 217.651 346.765Z" fill="#3AC24A"/>
<path fill-rule="evenodd" clip-rule="evenodd" d="M233.379 339.429C226.007 335.346 215.634 344.028 199.498 326.334C165.935 289.469 123.761 292.701 100.359 260.232C100.109 259.882 118.326 307.916 160.321 328.867C177.93 337.648 199.83 340.185 212.249 340.799C216.467 341.024 234.7 340.098 233.379 339.429Z" fill="#3AC24A"/>
<path fill-rule="evenodd" clip-rule="evenodd" d="M232.796 295.167C213.331 243.506 155.565 235.898 132.285 203.555C132.136 203.296 141.917 238.716 179.687 263.797C205.115 280.605 197.395 304.264 223.912 312.777C232.724 315.68 246.969 310.39 265.136 311.233C275.428 311.745 280.248 310.533 282.723 310.384C291.473 310.01 237.753 308.067 232.796 295.167Z" fill="#3AC24A"/>
<path fill-rule="evenodd" clip-rule="evenodd" d="M340.233 350.774C295.703 383.309 303.805 441.161 278.765 472.387C278.655 472.45 310.013 453.583 324.08 410.471C333.553 381.297 358.331 382.758 359.561 354.751C360.075 345.454 351.153 333.023 347.148 315.269C345.008 305.038 342.46 300.779 341.666 298.372C338.963 289.902 351.242 342.514 340.233 350.774Z" fill="#3AC24A"/>
<path fill-rule="evenodd" clip-rule="evenodd" d="M329.333 302.702C323.79 293.751 310.967 297.574 302.423 267.816C284.273 205.255 243.458 184.213 233.5 132.727C233.397 132.293 232.745 198.729 264.452 247.696C277.744 268.324 297.527 284.053 308.852 291.927C312.785 294.74 330.313 304.408 329.333 302.702Z" fill="#3AC24A"/>
<path fill-rule="evenodd" clip-rule="evenodd" d="M305.514 304.195C299.749 310.356 305.506 322.594 284.547 333.852C240.696 357.29 179.372 448.064 204.159 479.089C204.521 479.373 208.324 423.126 277.312 372.657C293.179 360.939 298.11 336.968 301.697 325.048C302.848 320.97 306.567 302.942 305.514 304.195Z" fill="#3AC24A"/>
<path fill-rule="evenodd" clip-rule="evenodd" d="M184.909 362.628C176.667 361.571 169.313 366.426 147.961 356.106C102.917 334.648 85.0283 372.656 51.3164 351.206C51.0407 351.069 66.646 376.834 113.257 380.375C132.998 381.986 154.293 376.022 165.893 371.87C169.881 370.498 186.502 362.743 184.909 362.628Z" fill="#3AC24A"/>
<path fill-rule="evenodd" clip-rule="evenodd" d="M420.151 299.014C410.626 290.245 398.466 296.848 376.801 265.943C331.268 201.157 320.118 243.517 288.268 127.931C288.166 127.496 273.489 203.545 327.981 251.024C350.809 271.02 378.487 284.546 393.922 291.175C399.298 293.498 421.952 300.69 420.151 299.014Z" fill="#3AC24A"/>
<path fill-rule="evenodd" clip-rule="evenodd" d="M595.953 450.032C570.182 439.306 533.407 246.127 291.757 304.852C243.727 316.571 202.064 372.76 152.501 363.315C154.366 373.408 181.304 368.178 213.423 352.43C237.104 340.682 262.109 320.701 290.564 310.141C323.412 297.976 359.047 300.759 380.143 300.101C401.34 299.534 421.764 303.617 439.034 308.639C471.667 318.106 476.24 319.807 515.064 351.002C547.591 377.244 589.782 458.058 589.782 458.058C597.045 446.877 598.174 451.068 595.953 450.032Z" fill="#14771E"/>
</g>
</svg>
